<!-- Josh Wentworth Brand Icon Sprite -->
<svg xmlns="http://www.w3.org/2000/svg">
  <defs>
    <!-- Blueprint icon - replaces triangle -->
    <symbol id="triangle" viewBox="0 0 64 64">
      <g fill="none" stroke="currentColor" stroke-width="2.5" stroke-linecap="round" stroke-linejoin="round">
        <path d="M14 14h30a6 6 0 0 1 6 6v24H14z"/>
        <path d="M14 30h36"/>
        <path d="M26 22h12v8H26z"/>
      </g>
    </symbol>

    <!-- Chip icon - replaces circle -->
    <symbol id="circle" viewBox="0 0 64 64">
      <g fill="none" stroke="currentColor" stroke-width="2.5" stroke-linecap="round" stroke-linejoin="round">
        <rect x="16" y="16" width="32" height="32" rx="4"/>
        <rect x="24" y="24" width="16" height="16" rx="2"/>
        <path d="M16 12v6 M24 12v6 M32 12v6 M40 12v6 M48 12v6"/>
        <path d="M16 52v-6 M24 52v-6 M32 52v-6 M40 52v-6 M48 52v-6"/>
        <path d="M12 16h6 M12 24h6 M12 32h6 M12 40h6 M12 48h6"/>
        <path d="M52 16h-6 M52 24h-6 M52 32h-6 M52 40h-6 M52 48h-6"/>
      </g>
    </symbol>

    <!-- Terminal icon - replaces arrowUp -->
    <symbol id="arrowUp" viewBox="0 0 64 64">
      <g fill="none" stroke="currentColor" stroke-width="2.5" stroke-linecap="round" stroke-linejoin="round">
<rect x="8" y="12" width="48" height="40" rx="5"/><path d="M16 24 L24 32 L16 40"/><path d="M28 40 H48"/>
      </g>
    </symbol>

    <!-- Oscilloscope icon - replaces upDown -->
    <symbol id="upDown" viewBox="0 0 64 64">
      <g fill="none" stroke="currentColor" stroke-width="2.5" stroke-linecap="round" stroke-linejoin="round">
<rect x="8" y="12" width="48" height="32" rx="4"/><path d="M12 40h12v6H12z"/><path d="M16 28c3 0 3-8 6-8s3 16 6 16 3-8 6-8 3 4 6 4"/>
      </g>
    </symbol>

    <!-- Container icon - replaces box -->
    <symbol id="box" viewBox="0 0 64 64">
      <g fill="none" stroke="currentColor" stroke-width="2.5" stroke-linecap="round" stroke-linejoin="round">
<rect x="10" y="18" width="44" height="28" rx="4"/><path d="M16 18v28 M22 18v28 M28 18v28 M34 18v28 M40 18v28 M46 18v28"/>
      </g>
    </symbol>

    <!-- Gear icon - replaces hexa -->
    <symbol id="hexa" viewBox="0 0 64 64">
      <g fill="none" stroke="currentColor" stroke-width="2.5" stroke-linecap="round" stroke-linejoin="round">
        <circle cx="32" cy="32" r="6"/>
        <path d="M32 18v-6 M32 52v-6 M46 32h6 M12 32h6"/>
        <path d="M43 21l4-4 M17 47l4-4 M21 21l-4-4 M47 47l-4-4"/>
        <circle cx="32" cy="32" r="14"/>
      </g>
    </symbol>

    <!-- API icon - replaces cross -->
    <symbol id="cross" viewBox="0 0 64 64">
      <g fill="none" stroke="currentColor" stroke-width="2.5" stroke-linecap="round" stroke-linejoin="round">
<rect x="10" y="16" width="44" height="24" rx="4"/><path d="M18 28h6"/><path d="M30 22v12"/><path d="M36 22v12"/><path d="M42 22v12"/>
      </g>
    </symbol>

    <!-- Additional brand icons for variety -->
    <symbol id="rocket" viewBox="0 0 64 64">
      <g fill="none" stroke="currentColor" stroke-width="2.5" stroke-linecap="round" stroke-linejoin="round">
<path d="M24 40l-6 10 10-6h8l10 6-6-10"/><path d="M24 40c0-14 8-24 8-24s8 10 8 24"/><circle cx="32" cy="28" r="4"/>
      </g>
    </symbol>

    <symbol id="code-brackets" viewBox="0 0 64 64">
      <g fill="none" stroke="currentColor" stroke-width="2.5" stroke-linecap="round" stroke-linejoin="round">
        <path d="M24 18 L14 32 L24 46"/>
        <path d="M40 18 L50 32 L40 46"/>
      </g>
    </symbol>

    <symbol id="resistor" viewBox="0 0 64 64">
      <g fill="none" stroke="currentColor" stroke-width="2.5" stroke-linecap="round" stroke-linejoin="round">
<path d="M6 32h10"/><path d="M16 32l4-6 6 12 6-12 6 12 6-12 4 6"/><path d="M58 32h-10"/>
      </g>
    </symbol>

    <symbol id="wifi" viewBox="0 0 64 64">
      <g fill="none" stroke="currentColor" stroke-width="2.5" stroke-linecap="round" stroke-linejoin="round">
<path d="M12 26c12-10 28-10 40 0"/><path d="M18 32c8-6 20-6 28 0"/><path d="M24 38c4-3 12-3 16 0"/><circle cx="32" cy="44" r="2"/>
      </g>
    </symbol>

    <symbol id="database" viewBox="0 0 64 64">
      <g fill="none" stroke="currentColor" stroke-width="2.5" stroke-linecap="round" stroke-linejoin="round">
<ellipse cx="32" cy="14" rx="18" ry="6"/><path d="M14 14v24c0 3 8 6 18 6s18-3 18-6V14"/><path d="M14 26c0 3 8 6 18 6s18-3 18-6"/><path d="M14 38c0 3 8 6 18 6s18-3 18-6"/>
      </g>
    </symbol>

    <!-- Additional brand icons from jw-icon-pack -->
    <symbol id="cloud" viewBox="0 0 64 64">
      <g fill="none" stroke="currentColor" stroke-width="2.5" stroke-linecap="round" stroke-linejoin="round">
        <path d="M18 40a8 8 0 0 1 2-16 12 12 0 0 1 23 3 7 7 0 0 1 3 13H18z"/>
      </g>
    </symbol>

    <symbol id="bolt" viewBox="0 0 64 64">
      <g fill="none" stroke="currentColor" stroke-width="2.5" stroke-linecap="round" stroke-linejoin="round">
        <path d="M28 6h8l6 12h-8l8 28h-8l-6-16h8z"/>
      </g>
    </symbol>

    <symbol id="cube-3d" viewBox="0 0 64 64">
      <g fill="none" stroke="currentColor" stroke-width="2.5" stroke-linecap="round" stroke-linejoin="round">
        <path d="M32 8l20 12v24L32 56 12 44V20z"/>
        <path d="M32 8v24l20 12"/>
        <path d="M32 32L12 44"/>
      </g>
    </symbol>

    <symbol id="flask" viewBox="0 0 64 64">
      <g fill="none" stroke="currentColor" stroke-width="2.5" stroke-linecap="round" stroke-linejoin="round">
        <path d="M28 12h8"/>
        <path d="M32 12v10l12 20a6 6 0 0 1-6 8H26a6 6 0 0 1-6-8l12-20V12"/>
      </g>
    </symbol>

    <symbol id="git-branch" viewBox="0 0 64 64">
      <g fill="none" stroke="currentColor" stroke-width="2.5" stroke-linecap="round" stroke-linejoin="round">
<circle cx="18" cy="18" r="4"/><circle cx="18" cy="46" r="4"/><path d="M18 22v20a8 8 0 0 0 8 8h8"/><path d="M22 18h20"/>
      </g>
    </symbol>

    <symbol id="server-stack" viewBox="0 0 64 64">
      <g fill="none" stroke="currentColor" stroke-width="2.5" stroke-linecap="round" stroke-linejoin="round">
<rect x="10" y="12" width="44" height="10" rx="4"/><rect x="10" y="27" width="44" height="10" rx="4"/><rect x="10" y="42" width="44" height="10" rx="4"/><circle cx="18" cy="17" r="1.5"/><circle cx="18" cy="32" r="1.5"/><circle cx="18" cy="47" r="1.5"/>
      </g>
    </symbol>

    <symbol id="shield" viewBox="0 0 64 64">
      <g fill="none" stroke="currentColor" stroke-width="2.5" stroke-linecap="round" stroke-linejoin="round">
<path d="M32 8l18 6v14c0 12-10 20-18 24-8-4-18-12-18-24V14z"/>
      </g>
    </symbol>

    <symbol id="bug" viewBox="0 0 64 64">
      <g fill="none" stroke="currentColor" stroke-width="2.5" stroke-linecap="round" stroke-linejoin="round">
<circle cx="32" cy="28" r="8"/><path d="M24 36v10 M40 36v10"/><path d="M18 28h-8 M46 28h8"/><path d="M22 20l-6-6 M42 20l6-6"/>
      </g>
    </symbol>

    <symbol id="cluster" viewBox="0 0 64 64">
      <g fill="none" stroke="currentColor" stroke-width="2.5" stroke-linecap="round" stroke-linejoin="round">
<circle cx="20" cy="20" r="6"/><circle cx="44" cy="20" r="6"/><circle cx="20" cy="44" r="6"/><circle cx="44" cy="44" r="6"/><path d="M26 20h12 M20 26v12 M44 26v12 M26 44h12"/>
      </g>
    </symbol>

    <symbol id="git-merge" viewBox="0 0 64 64">
      <g fill="none" stroke="currentColor" stroke-width="2.5" stroke-linecap="round" stroke-linejoin="round">
<circle cx="18" cy="18" r="4"/><circle cx="18" cy="46" r="4"/><circle cx="46" cy="32" r="4"/><path d="M22 18h16v14"/><path d="M18 22v20"/>
      </g>
    </symbol>

    <symbol id="key" viewBox="0 0 64 64">
      <g fill="none" stroke="currentColor" stroke-width="2.5" stroke-linecap="round" stroke-linejoin="round">
<circle cx="24" cy="32" r="8"/><path d="M30 32h22l-4 4 4 4"/>
      </g>
    </symbol>

    <symbol id="lock" viewBox="0 0 64 64">
      <g fill="none" stroke="currentColor" stroke-width="2.5" stroke-linecap="round" stroke-linejoin="round">
<rect x="16" y="28" width="32" height="22" rx="4"/><path d="M24 28v-6a8 8 0 0 1 16 0v6"/><circle cx="32" cy="38" r="2"/>
      </g>
    </symbol>

    <symbol id="sine-wave" viewBox="0 0 64 64">
      <g fill="none" stroke="currentColor" stroke-width="2.5" stroke-linecap="round" stroke-linejoin="round">
<path d="M6 32c6 0 6-16 12-16s6 32 12 32 6-16 12-16 6 16 12 16"/>
      </g>
    </symbol>

    <symbol id="capacitor" viewBox="0 0 64 64">
      <g fill="none" stroke="currentColor" stroke-width="2.5" stroke-linecap="round" stroke-linejoin="round">
<path d="M10 32h18"/><path d="M28 20v24"/><path d="M36 20v24"/><path d="M36 32h18"/>
      </g>
    </symbol>

    <symbol id="diode" viewBox="0 0 64 64">
      <g fill="none" stroke="currentColor" stroke-width="2.5" stroke-linecap="round" stroke-linejoin="round">
<path d="M10 32h12"/><path d="M22 24v16l16-8-16-8z"/><path d="M38 24v16"/><path d="M38 32h16"/>
      </g>
    </symbol>

    <symbol id="pull-request" viewBox="0 0 64 64">
      <g fill="none" stroke="currentColor" stroke-width="2.5" stroke-linecap="round" stroke-linejoin="round">
<circle cx="18" cy="18" r="4"/><circle cx="46" cy="46" r="4"/><path d="M22 18h12a8 8 0 0 1 8 8v12"/><path d="M18 22v28"/>
      </g>
    </symbol>

    <symbol id="compass" viewBox="0 0 64 64">
      <g fill="none" stroke="currentColor" stroke-width="2.5" stroke-linecap="round" stroke-linejoin="round">
<path d="M32 12v12"/><path d="M20 52l12-28 12 28"/><circle cx="32" cy="24" r="4"/>
      </g>
    </symbol>

    <symbol id="wrench" viewBox="0 0 64 64">
      <g fill="none" stroke="currentColor" stroke-width="2.5" stroke-linecap="round" stroke-linejoin="round">
        <path d="M46 18a10 10 0 0 0-14 12L14 48l6 6 18-18a10 10 0 0 0 8-18z"/>
      </g>
    </symbol>

    <symbol id="bluetooth" viewBox="0 0 64 64">
      <g fill="none" stroke="currentColor" stroke-width="2.5" stroke-linecap="round" stroke-linejoin="round">
        <path d="M24 12v40l20-14-14-10 14-10-20-6z"/>
        <path d="M24 32h0"/>
      </g>
    </symbol>

    <symbol id="led" viewBox="0 0 64 64">
      <g fill="none" stroke="currentColor" stroke-width="2.5" stroke-linecap="round" stroke-linejoin="round">
        <rect x="22" y="18" width="20" height="18" rx="10"/>
        <path d="M22 36v10 M42 36v10"/>
        <path d="M18 50h28"/>
      </g>
    </symbol>

    <symbol id="inductor" viewBox="0 0 64 64">
      <g fill="none" stroke="currentColor" stroke-width="2.5" stroke-linecap="round" stroke-linejoin="round">
        <path d="M8 32h8"/>
        <path d="M16 32c0-8 8-8 8 0s8 8 8 0 8-8 8 0 8 8 8 0"/>
        <path d="M56 32h0"/>
      </g>
    </symbol>

    <symbol id="caliper" viewBox="0 0 64 64">
      <g fill="none" stroke="currentColor" stroke-width="2.5" stroke-linecap="round" stroke-linejoin="round">
        <path d="M12 16h32v8H28v24H20V24h-8z"/>
        <path d="M28 28h14"/>
      </g>
    </symbol>

    <symbol id="graph" viewBox="0 0 64 64">
      <g fill="none" stroke="currentColor" stroke-width="2.5" stroke-linecap="round" stroke-linejoin="round">
        <path d="M10 50h44"/>
        <path d="M14 46l8-10 8 6 10-16 8 10"/>
        <path d="M10 14v36"/>
      </g>
    </symbol>

    <symbol id="nut" viewBox="0 0 64 64">
      <g fill="none" stroke="currentColor" stroke-width="2.5" stroke-linecap="round" stroke-linejoin="round">
        <path d="M20 12h24l12 20-12 20H20L8 32z"/>
        <circle cx="32" cy="32" r="8"/>
      </g>
    </symbol>

    <symbol id="ruler" viewBox="0 0 64 64">
      <g fill="none" stroke="currentColor" stroke-width="2.5" stroke-linecap="round" stroke-linejoin="round">
        <rect x="10" y="20" width="44" height="12" rx="2"/>
        <path d="M14 20v-6 M20 20v-4 M26 20v-6 M32 20v-4 M38 20v-6 M44 20v-4 M50 20v-6"/>
      </g>
    </symbol>

    <symbol id="motor" viewBox="0 0 64 64">
      <g fill="none" stroke="currentColor" stroke-width="2.5" stroke-linecap="round" stroke-linejoin="round">
        <rect x="12" y="22" width="36" height="20" rx="6"/>
        <path d="M48 28h6v8h-6"/>
        <path d="M12 32H6"/>
      </g>
    </symbol>

    <symbol id="screwdriver" viewBox="0 0 64 64">
      <g fill="none" stroke="currentColor" stroke-width="2.5" stroke-linecap="round" stroke-linejoin="round">
        <path d="M44 12l8 8-6 6-8-8z"/>
        <path d="M26 30l8 8-14 14-8-8z"/>
      </g>
    </symbol>

    <symbol id="magnifier" viewBox="0 0 64 64">
      <g fill="none" stroke="currentColor" stroke-width="2.5" stroke-linecap="round" stroke-linejoin="round">
        <circle cx="28" cy="28" r="12"/>
        <path d="M36 36l12 12"/>
      </g>
    </symbol>

    <symbol id="plug" viewBox="0 0 64 64">
      <g fill="none" stroke="currentColor" stroke-width="2.5" stroke-linecap="round" stroke-linejoin="round">
        <path d="M20 24h16v10a8 8 0 0 1-8 8h0a8 8 0 0 1-8-8z"/>
        <path d="M26 24v-8 M30 24v-8"/>
        <path d="M24 42v6 M32 42v6"/>
      </g>
    </symbol>

    <symbol id="test-tube" viewBox="0 0 64 64">
      <g fill="none" stroke="currentColor" stroke-width="2.5" stroke-linecap="round" stroke-linejoin="round">
        <path d="M24 12h16"/>
        <path d="M28 12v24a8 8 0 1 0 16 0V12"/>
        <path d="M28 30h16"/>
      </g>
    </symbol>

    <symbol id="stopwatch" viewBox="0 0 64 64">
      <g fill="none" stroke="currentColor" stroke-width="2.5" stroke-linecap="round" stroke-linejoin="round">
        <circle cx="32" cy="36" r="16"/>
        <path d="M32 36l6-8"/>
        <path d="M28 12h8 M32 12v6"/>
      </g>
    </symbol>

    <symbol id="battery" viewBox="0 0 64 64">
      <g fill="none" stroke="currentColor" stroke-width="2.5" stroke-linecap="round" stroke-linejoin="round">
        <rect x="12" y="22" width="36" height="20" rx="4"/>
        <rect x="48" y="28" width="4" height="8" rx="1"/>
        <path d="M16 40h24"/>
      </g>
    </symbol>

    <symbol id="commit" viewBox="0 0 64 64">
      <g fill="none" stroke="currentColor" stroke-width="2.5" stroke-linecap="round" stroke-linejoin="round">
        <path d="M10 32h44"/>
        <circle cx="32" cy="32" r="6"/>
      </g>
    </symbol>

    <symbol id="pcb-trace" viewBox="0 0 64 64">
      <g fill="none" stroke="currentColor" stroke-width="2.5" stroke-linecap="round" stroke-linejoin="round">
        <circle cx="16" cy="16" r="4"/>
        <path d="M16 20v12a8 8 0 0 0 8 8h8"/>
        <circle cx="32" cy="40" r="3"/>
        <path d="M32 37v-7a6 6 0 0 1 6-6h10"/>
        <circle cx="50" cy="24" r="3"/>
      </g>
    </symbol>

    <symbol id="robotic-arm" viewBox="0 0 64 64">
      <g fill="none" stroke="currentColor" stroke-width="2.5" stroke-linecap="round" stroke-linejoin="round">
        <path d="M12 52h40"/>
        <path d="M20 52V34l14-8 10 6"/>
        <circle cx="34" cy="26" r="3"/>
        <path d="M44 32l6-2-2 6"/>
      </g>
    </symbol>

    <symbol id="function-fx" viewBox="0 0 64 64">
      <g fill="none" stroke="currentColor" stroke-width="2.5" stroke-linecap="round" stroke-linejoin="round">
        <path d="M20 20h18"/>
        <path d="M28 20l-8 24"/>
        <path d="M34 28l10 12 M44 28l-10 12"/>
      </g>
    </symbol>

    <symbol id="json" viewBox="0 0 64 64">
      <g fill="none" stroke="currentColor" stroke-width="2.5" stroke-linecap="round" stroke-linejoin="round">
        <path d="M22 16c-8 0-8 16 0 16s8 16 0 16"/>
        <path d="M42 16c8 0 8 16 0 16s-8 16 0 16"/>
      </g>
    </symbol>

    <symbol id="op-amp" viewBox="0 0 64 64">
      <g fill="none" stroke="currentColor" stroke-width="2.5" stroke-linecap="round" stroke-linejoin="round">
        <path d="M14 32h8"/>
        <path d="M14 26h8"/>
        <path d="M22 20l24 12-24 12z"/>
        <path d="M46 32h8"/>
      </g>
    </symbol>
  </defs>
</svg>